<svg width="25" height="25" viewBox="0 0 25 25" fill="none" xmlns="http://www.w3.org/2000/svg">
<circle cx="12.5" cy="12.5" r="12.5" fill="#323232"/>
<path d="M13.6936 16.8403H14.3446C14.431 16.8403 14.5137 16.806 14.5748 16.7449C14.6358 16.6839 14.6701 16.6011 14.6701 16.5148V10.6554C14.6701 10.569 14.6358 10.4863 14.5748 10.4252C14.5137 10.3642 14.431 10.3299 14.3446 10.3299H13.6936C13.6072 10.3299 13.5244 10.3642 13.4634 10.4252C13.4023 10.4863 13.3681 10.569 13.3681 10.6554V16.5148C13.3681 16.6011 13.4023 16.6839 13.4634 16.7449C13.5244 16.806 13.6072 16.8403 13.6936 16.8403ZM18.1424 7.72569H15.9068L14.9845 6.18761C14.8688 5.99474 14.7051 5.83515 14.5093 5.72438C14.3135 5.61361 14.0924 5.55545 13.8675 5.55556H11.1325C10.9077 5.55554 10.6867 5.61375 10.491 5.72451C10.2954 5.83528 10.1317 5.99482 10.016 6.18761L9.09315 7.72569H6.85764C6.74253 7.72569 6.63213 7.77142 6.55073 7.85282C6.46934 7.93421 6.42361 8.04461 6.42361 8.15972V8.59375C6.42361 8.70886 6.46934 8.81926 6.55073 8.90065C6.63213 8.98205 6.74253 9.02778 6.85764 9.02778H7.29167V18.1424C7.29167 18.4877 7.42885 18.8189 7.67304 19.0631C7.91723 19.3073 8.24842 19.4444 8.59375 19.4444H16.4062C16.7516 19.4444 17.0828 19.3073 17.327 19.0631C17.5711 18.8189 17.7083 18.4877 17.7083 18.1424V9.02778H18.1424C18.2575 9.02778 18.3679 8.98205 18.4493 8.90065C18.5307 8.81926 18.5764 8.70886 18.5764 8.59375V8.15972C18.5764 8.04461 18.5307 7.93421 18.4493 7.85282C18.3679 7.77142 18.2575 7.72569 18.1424 7.72569ZM11.0851 6.93658C11.0996 6.91243 11.1201 6.89247 11.1446 6.87863C11.1692 6.86479 11.1969 6.85756 11.225 6.85764H13.775C13.8031 6.85761 13.8307 6.86486 13.8552 6.8787C13.8797 6.89253 13.9002 6.91247 13.9147 6.93658L14.3883 7.72569H10.6117L11.0851 6.93658ZM16.4062 18.1424H8.59375V9.02778H16.4062V18.1424ZM10.6554 16.8403H11.3064C11.3928 16.8403 11.4756 16.806 11.5366 16.7449C11.5976 16.6839 11.6319 16.6011 11.6319 16.5148V10.6554C11.6319 10.569 11.5976 10.4863 11.5366 10.4252C11.4756 10.3642 11.3928 10.3299 11.3064 10.3299H10.6554C10.569 10.3299 10.4863 10.3642 10.4252 10.4252C10.3642 10.4863 10.3299 10.569 10.3299 10.6554V16.5148C10.3299 16.6011 10.3642 16.6839 10.4252 16.7449C10.4863 16.806 10.569 16.8403 10.6554 16.8403Z" fill="white"/>
</svg>
